<svg xmlns="http://www.w3.org/2000/svg" width="8" height="8" viewBox="0 0 8 8">
  <g id="back" transform="translate(-417 -308)">
    <rect id="Rectangle_51" data-name="Rectangle 51" width="8" height="8" transform="translate(417 308)" fill="none"/>
    <g id="_271220" data-name="271220" transform="translate(419 308.667)">
      <g id="Group_43" data-name="Group 43" transform="translate(0 0)">
        <path id="Path_42" data-name="Path 42" d="M102.8,3.335,105.29.841a.365.365,0,0,0,0-.516l-.219-.218a.365.365,0,0,0-.516,0l-2.969,2.969a.368.368,0,0,0,0,.518l2.967,2.967a.365.365,0,0,0,.516,0l.218-.218a.365.365,0,0,0,0-.516Z" transform="translate(-101.48 0)"/>
      </g>
    </g>
  </g>
</svg>
