<svg xmlns="http://www.w3.org/2000/svg" width="8" height="8" viewBox="0 0 8 8">
  <g id="check" transform="translate(-507 -207)">
    <rect id="Rectangle_31" data-name="Rectangle 31" width="8" height="8" transform="translate(507 207)" fill="none"/>
    <g id="_25643" data-name="25643" transform="translate(507.667 208.111)">
      <g id="Group_10" data-name="Group 10" transform="translate(0 0)">
        <path id="Path_9" data-name="Path 9" d="M5.564,39.5a.106.106,0,0,0-.048-.012.126.126,0,0,0-.092.04l-.257.257a.12.12,0,0,0-.036.088v1.018a.643.643,0,0,1-.641.641H1.155A.618.618,0,0,1,.7,41.344a.618.618,0,0,1-.188-.453V37.555A.618.618,0,0,1,.7,37.1a.618.618,0,0,1,.453-.188H4.49a.712.712,0,0,1,.18.024.129.129,0,0,0,.036.008.127.127,0,0,0,.092-.04l.2-.2a.125.125,0,0,0,.036-.116.122.122,0,0,0-.072-.092,1.1,1.1,0,0,0-.469-.1H1.155a1.112,1.112,0,0,0-.816.339A1.112,1.112,0,0,0,0,37.556v3.335a1.112,1.112,0,0,0,.339.816,1.112,1.112,0,0,0,.816.339H4.49a1.157,1.157,0,0,0,1.155-1.155V39.616A.116.116,0,0,0,5.564,39.5Z" transform="translate(0 -36.401)"/>
        <path id="Path_10" data-name="Path 10" d="M78.914,55.493l-.441-.441a.32.32,0,0,0-.457,0l-2.594,2.594-1.054-1.054a.319.319,0,0,0-.457,0l-.441.441a.319.319,0,0,0,0,.457l1.724,1.724a.32.32,0,0,0,.457,0l3.263-3.263a.319.319,0,0,0,0-.457Z" transform="translate(-72.344 -54.695)"/>
      </g>
    </g>
  </g>
</svg>
