<svg xmlns="http://www.w3.org/2000/svg" width="8" height="8" viewBox="0 0 8 8">
  <g id="dashboard" transform="translate(-141.913 -54.927)">
    <rect id="Rectangle_17" data-name="Rectangle 17" width="8" height="8" transform="translate(141.913 54.927)" fill="none"/>
    <path id="_2057161" data-name=" 2057161" d="M148.246,57.927a3.333,3.333,0,1,0,3.333,3.333A3.333,3.333,0,0,0,148.246,57.927Zm-.333,3.778a.556.556,0,0,1-.111-.778,3.7,3.7,0,0,1,1.111-.556,3.671,3.671,0,0,1-.222,1.222.555.555,0,0,1-.778.111Zm.351,2.073v-.556a1.944,1.944,0,1,0-1.944-1.944h-.556a2.5,2.5,0,1,1,2.5,2.5Z" transform="translate(-2.333 -2.333)"/>
  </g>
</svg>
