<?xml version="1.0" encoding="utf-8"?>
<!-- Generator: Adobe Illustrator 23.1.0, SVG Export Plug-In . SVG Version: 6.00 Build 0)  -->
<svg version="1.1" id="Layer_1" xmlns="http://www.w3.org/2000/svg" xmlns:xlink="http://www.w3.org/1999/xlink" x="0px" y="0px"
	 viewBox="0 0 8 8" style="enable-background:new 0 0 8 8;" xml:space="preserve">
<style type="text/css">
	.st0{fill:none;}
</style>
<g>
	<path d="M7.9,3.7C7.6,3.3,7.2,2.9,6.8,2.6C6,1.9,5,1.5,4,1.5c-1,0-2,0.4-2.8,1.1C0.8,2.9,0.4,3.3,0.1,3.7L0,3.9l0.1,0.2
		c0.3,0.4,0.7,0.8,1.1,1.1C2,5.9,3,6.3,4,6.3c1,0,2-0.4,2.8-1.1c0.4-0.3,0.8-0.7,1.1-1.1L8,3.9L7.9,3.7z M6.5,4.7L6.5,4.7
		C6.2,4.9,6,5,5.7,5.2C5.3,5.7,4.7,6.1,4,6.1c-0.7,0-1.3-0.3-1.7-0.9C2,5,1.8,4.9,1.6,4.7C1.3,4.5,1,4.2,0.7,3.9
		C1,3.6,1.3,3.3,1.6,3.1c0.2-0.2,0.5-0.4,0.8-0.5c0.4-0.5,1-0.8,1.6-0.8c0.7,0,1.2,0.3,1.6,0.8c0.3,0.2,0.6,0.3,0.8,0.5
		C6.7,3.3,7,3.6,7.3,3.9C7,4.2,6.7,4.5,6.5,4.7z"/>
	<rect id="Rectangle_39" class="st0" width="8" height="8"/>
	<path d="M4,1.8c-1.2,0-2.1,1-2.1,2.1c0,1.2,1,2.1,2.1,2.1s2.1-1,2.1-2.1C6.1,2.8,5.2,1.8,4,1.8z M4,5C3.4,5,2.9,4.5,2.9,3.9
		S3.4,2.9,4,2.9s1.1,0.5,1.1,1.1S4.6,5,4,5z"/>
</g>
</svg>
