<svg xmlns="http://www.w3.org/2000/svg" width="8" height="8" viewBox="0 0 8 8">
  <g id="Group_22" data-name="Group 22" transform="translate(-393 -303)">
    <rect id="Rectangle_42" data-name="Rectangle 42" width="8" height="8" transform="translate(393 303)" fill="none"/>
    <g id="_57888" data-name="57888" transform="translate(399.81 310.333) rotate(180)">
      <path id="Path_22" data-name="Path 22" d="M.994,0H.331A.328.328,0,0,0,0,.323V6.344a.328.328,0,0,0,.331.323H.994a.328.328,0,0,0,.331-.323V.323A.328.328,0,0,0,.994,0Z" transform="translate(0 0)"/>
      <path id="Path_23" data-name="Path 23" d="M3.77,6.343V.321A.338.338,0,0,0,3.2.1L.1,3.106a.311.311,0,0,0,0,.452L3.2,6.569A.335.335,0,0,0,3.77,6.343Z" transform="translate(1.929 0.001)"/>
    </g>
  </g>
</svg>
