<svg xmlns="http://www.w3.org/2000/svg" width="8" height="8" viewBox="0 0 8 8">
  <g id="Group_15" data-name="Group 15" transform="translate(-584 -287)">
    <rect id="Rectangle_37" data-name="Rectangle 37" width="8" height="8" transform="translate(584 287)" fill="none"/>
    <g id="Group_14" data-name="Group 14" transform="translate(584.667 287.667)">
      <path id="Path_16" data-name="Path 16" d="M122.879,69.984a.895.895,0,1,1,.9-.895.9.9,0,0,1-.9.895Z" transform="translate(-119.545 -65.755)"/>
      <path id="Path_17" data-name="Path 17" d="M113.624,63.168a.292.292,0,0,1-.291-.292v-.409a2.652,2.652,0,0,1-2.341-2.342h-.409a.291.291,0,0,1,0-.583h.409a2.647,2.647,0,0,1,1.491-2.1.3.3,0,0,1,.12-.026.291.291,0,0,1,.136.549,2.078,2.078,0,0,0-1.181,1.866,2.065,2.065,0,1,0,2.067-2.064.292.292,0,0,1-.291-.291v-.684a.291.291,0,0,1,.583,0V57.2a2.653,2.653,0,0,1,2.342,2.342h.409a.291.291,0,0,1,0,.583h-.409a2.652,2.652,0,0,1-2.342,2.342v.409a.292.292,0,0,1-.291.292Z" transform="translate(-110.291 -56.501)"/>
    </g>
  </g>
</svg>
