<svg xmlns="http://www.w3.org/2000/svg" width="8" height="8" viewBox="0 0 8 8">
  <g id="search" transform="translate(-507 -152)">
    <rect id="Rectangle_28" data-name="Rectangle 28" width="8" height="8" transform="translate(507 152)" fill="none"/>
    <g id="_49116" data-name="49116" transform="translate(507.667 152.667)">
      <path id="Path_7" data-name="Path 7" d="M4.453.763A2.609,2.609,0,1,0,4.1,4.748a.549.549,0,0,0,.149.276L5.727,6.506a.551.551,0,0,0,.779-.779L5.025,4.245A.551.551,0,0,0,4.749,4.1,2.611,2.611,0,0,0,4.453.763ZM3.985,3.985a1.948,1.948,0,1,1,0-2.754A1.95,1.95,0,0,1,3.985,3.985Z" transform="translate(-0.001 0)"/>
    </g>
  </g>
</svg>
