<svg xmlns="http://www.w3.org/2000/svg" width="8" height="8" viewBox="0 0 8 8">
  <g id="setting" transform="translate(-137.913 -923.927)">
    <rect id="Rectangle_27" data-name="Rectangle 27" width="8" height="8" transform="translate(137.913 923.927)" fill="none"/>
    <g id="Group_10" data-name="Group 10" transform="translate(138.58 925.288)">
      <path id="Path_19" data-name="Path 19" d="M144.965,937.271a.119.119,0,0,0-.024-.069q-.194-.233-.312-.4a1.715,1.715,0,0,0,.111-.264l.538-.083a.081.081,0,0,0,.056-.036.113.113,0,0,0,.024-.068v-.642a.1.1,0,0,0-.024-.068.1.1,0,0,0-.059-.036l-.528-.08a2.411,2.411,0,0,0-.118-.285q.052-.076.156-.208t.146-.188a.115.115,0,0,0,.024-.066q0-.094-.5-.556a.116.116,0,0,0-.073-.028.1.1,0,0,0-.07.024l-.41.309a1.532,1.532,0,0,0-.26-.108l-.08-.531a.09.09,0,0,0-.035-.061.106.106,0,0,0-.07-.026h-.646a.1.1,0,0,0-.1.083,3.971,3.971,0,0,0-.08.535,1.67,1.67,0,0,0-.267.111l-.4-.312a.124.124,0,0,0-.073-.024q-.066,0-.274.2a2.99,2.99,0,0,0-.285.309.1.1,0,0,0-.024.069.133.133,0,0,0,.024.07q.195.233.313.4a1.693,1.693,0,0,0-.111.264l-.538.083a.081.081,0,0,0-.056.036.113.113,0,0,0-.024.068v.642a.1.1,0,0,0,.024.068.085.085,0,0,0,.059.033l.528.083a1.747,1.747,0,0,0,.122.285q-.056.077-.163.212t-.142.184a.117.117,0,0,0-.024.066q0,.094.5.556a.116.116,0,0,0,.073.028.094.094,0,0,0,.07-.024l.41-.309a1.526,1.526,0,0,0,.26.108l.08.531a.089.089,0,0,0,.035.061.1.1,0,0,0,.069.026h.646a.1.1,0,0,0,.1-.083,4.145,4.145,0,0,0,.08-.538,1.568,1.568,0,0,0,.267-.108l.4.313a.126.126,0,0,0,.073.024q.066,0,.273-.207a3.626,3.626,0,0,0,.286-.311A.089.089,0,0,0,144.965,937.271Zm-1.2-.618a.889.889,0,1,1,.26-.629A.858.858,0,0,1,143.764,936.653Z" transform="translate(-140.913 -932.969)"/>
      <path id="Path_21" data-name="Path 21" d="M161.063,930.979a.966.966,0,0,0-.1-.181,1.909,1.909,0,0,0,.177-.479.029.029,0,0,0-.014-.024q-.417-.243-.431-.243l-.021.007a3.239,3.239,0,0,0-.32.389c-.046,0-.081-.007-.1-.007s-.058,0-.1.007q-.048-.073-.18-.234t-.16-.162a.84.84,0,0,0-.1.056l-.2.118-.122.069a.03.03,0,0,0-.014.024,1.917,1.917,0,0,0,.177.479.972.972,0,0,0-.1.18q-.517.052-.517.108v.486q0,.056.517.108a1,1,0,0,0,.1.181,1.921,1.921,0,0,0-.177.479.03.03,0,0,0,.014.024q.424.246.431.246.028,0,.16-.163t.18-.236c.046,0,.081.007.1.007s.058,0,.1-.007q.049.073.181.236t.16.163s.148-.082.431-.246a.03.03,0,0,0,.014-.024,1.921,1.921,0,0,0-.177-.479,1,1,0,0,0,.1-.181q.517-.052.517-.108v-.486Q161.581,931.031,161.063,930.979Zm-.5.665a.444.444,0,1,1,.13-.315A.444.444,0,0,1,160.561,931.644Z" transform="translate(-154.914 -930.052)"/>
    </g>
  </g>
</svg>
