<svg xmlns="http://www.w3.org/2000/svg" width="8" height="8" viewBox="0 0 8 8">
  <g id="team" transform="translate(-326 -161)">
    <rect id="Rectangle_20" data-name="Rectangle 20" width="8" height="8" transform="translate(326 161)" fill="none"/>
    <g id="_125704" data-name=" 125704" transform="translate(326 163)">
      <g id="Group_6" data-name="Group 6" transform="translate(0 0)">
        <g id="Group_3" data-name="Group 3" transform="translate(1.896)">
          <path id="Path_3" data-name="Path 3" d="M152.073,328.045a6.744,6.744,0,0,0-1.23-.788.038.038,0,0,1-.021-.034v-.833a.388.388,0,0,0,.174-.323V325.2a.778.778,0,0,0-.777-.778h-.186a.778.778,0,0,0-.778.777h0v.864a.387.387,0,0,0,.174.323v.833a.038.038,0,0,1-.021.034,6.831,6.831,0,0,0-1.23.788.417.417,0,0,0-.153.323v.591h4.2v-.591A.417.417,0,0,0,152.073,328.045Z" transform="translate(-148.024 -324.425)"/>
        </g>
        <g id="Group_4" data-name="Group 4" transform="translate(5.107)">
          <path id="Path_4" data-name="Path 4" d="M162.826,327.462a5.594,5.594,0,0,0-1.031-.662.031.031,0,0,1-.018-.03v-.7a.329.329,0,0,0,.146-.273v-.724a.652.652,0,0,0-.652-.652h-.154a.652.652,0,0,0-.652.652v.724a.326.326,0,0,0,.146.273v.7a.033.033,0,0,1-.018.03,5.391,5.391,0,0,0-.527.3,7,7,0,0,1,1.044.7.736.736,0,0,1,.256.43h1.592v-.5A.366.366,0,0,0,162.826,327.462Z" transform="translate(-160.066 -324.425)"/>
        </g>
        <g id="Group_5" data-name="Group 5">
          <path id="Path_5" data-name="Path 5" d="M143.277,326.8a.031.031,0,0,1-.018-.03v-.7a.329.329,0,0,0,.146-.273v-.724a.652.652,0,0,0-.652-.652H142.6a.652.652,0,0,0-.652.652v.724a.326.326,0,0,0,.146.273v.7a.032.032,0,0,1-.018.03,5.587,5.587,0,0,0-1.031.662.353.353,0,0,0-.128.271v.5h1.593a.729.729,0,0,1,.256-.43,7,7,0,0,1,1.044-.7A5.6,5.6,0,0,0,143.277,326.8Z" transform="translate(-140.913 -324.425)"/>
        </g>
      </g>
    </g>
  </g>
</svg>
