<svg xmlns="http://www.w3.org/2000/svg" width="8" height="8" viewBox="0 0 8 8">
  <g id="testimonials" transform="translate(-137.913 -488.927)">
    <rect id="Rectangle_22" data-name="Rectangle 22" width="8" height="8" transform="translate(137.913 488.927)" fill="none"/>
    <g id="_1701926" data-name=" 1701926" transform="translate(138.58 489.847)">
      <path id="Path_10" data-name="Path 10" d="M158.17,504.372h-.628v1.041a.946.946,0,0,1-.945.945h-1.523v.387a.425.425,0,0,0,.424.424h1.348l.643.779a.2.2,0,0,0,.348-.079l.175-.7h.158a.424.424,0,0,0,.424-.424V504.8A.424.424,0,0,0,158.17,504.372Z" transform="translate(-151.927 -501.859)"/>
      <path id="Path_11" data-name="Path 11" d="M145.583,493.065h-4.125a.546.546,0,0,0-.545.545v3.008a.546.546,0,0,0,.545.545h.4l.291,1.164a.2.2,0,0,0,.348.079l1.025-1.242h2.06a.546.546,0,0,0,.545-.545V493.61A.546.546,0,0,0,145.583,493.065Zm-.888,1.911-.442.431.1.609a.2.2,0,0,1-.29.211l-.547-.288-.547.288a.2.2,0,0,1-.29-.211l.1-.609-.442-.431a.2.2,0,0,1,.111-.341l.611-.089.273-.554a.2.2,0,0,1,.359,0l.273.554.611.089a.2.2,0,0,1,.111.341Z" transform="translate(-140.913 -493.065)"/>
      <path id="Path_12" data-name="Path 12" d="M150.67,499.954l-.14-.284-.14.284a.2.2,0,0,1-.151.11l-.314.046.227.222a.2.2,0,0,1,.058.177l-.054.313.281-.148a.2.2,0,0,1,.186,0l.281.148-.054-.313a.2.2,0,0,1,.058-.177l.227-.222-.314-.046a.2.2,0,0,1-.151-.109Z" transform="translate(-147.922 -498.202)"/>
    </g>
  </g>
</svg>
